<svg width="512" height="512" viewBox="0 0 512 512" fill="none" xmlns="http://www.w3.org/2000/svg">
  <defs>
    <filter id="glow" x="-20%" y="-20%" width="140%" height="140%">
      <feGaussianBlur stdDeviation="15" result="blur" />
      <feComposite in="SourceGraphic" in2="blur" operator="over" />
    </filter>
  </defs>
  <rect width="512" height="512" rx="112" fill="#0D1117"/>
  <!-- Book Spine -->
  <rect x="80" y="60" width="40" height="392" rx="8" fill="#1F2937" stroke="#374151" stroke-width="2"/>
  <!-- Book Cover -->
  <rect x="120" y="60" width="312" height="392" rx="8" fill="#111827" stroke="#374151" stroke-width="4"/>
  <!-- Lightbulb Base -->
  <rect x="236" y="290" width="40" height="25" rx="4" fill="#9CA3AF" />
  <rect x="240" y="315" width="32" height="10" rx="2" fill="#6B7280" />
  <!-- Glowing Lightbulb -->
  <path d="M256 160C222.863 160 196 186.863 196 220C196 244.3 210.5 265.2 231.5 274.5L231.5 290L280.5 290L280.5 274.5C301.5 265.2 316 244.3 316 220C316 186.863 289.137 160 256 160Z" fill="#F97316" filter="url(#glow)"/>
  <circle cx="256" cy="220" r="30" fill="#FB923C" />
  <!-- Text -->
  <text x="256" y="410" font-family="Arial, sans-serif" font-weight="bold" font-size="28" fill="#F97316" text-anchor="middle">JT VOCAB QUIZ</text>
  <!-- Rays -->
  <g stroke="#FB923C" stroke-width="6" stroke-linecap="round">
    <line x1="256" y1="130" x2="256" y2="100" />
    <line x1="326" y1="170" x2="356" y2="150" />
    <line x1="386" y1="220" x2="356" y2="220" />
    <line x1="186" y1="170" x2="156" y2="150" />
    <line x1="126" y1="220" x2="156" y2="220" />
  </g>
</svg>
